# xmcd
#
# Track frame offsets:
#	150
#	18245
#	48390
#	65715
#	91040
#	112395
#	124847
#	142042
#	167495
#	188300
#	211445
#	230102
#	250897
#	276547
#	298587
#	319477
#
# Disc length: 4485 seconds
#
# Revision: 7
# Processed by: cddbd v1.5.1PL0 Copyright (c) Steve Scherf et al.
# Submitted via: audiograbber 1.83.01
#
DISCID=f9118310
DTITLE=Yanni - The Very Best Of Yanni
DYEAR=2000
DGENRE=New Age
TTITLE0=Aria
TTITLE1=Looking Glass
TTITLE2=In The Morning Light
TTITLE3=Marching Season
TTITLE4=Swept Away
TTITLE5=One Man's Dream
TTITLE6=The Mermaid
TTITLE7=To The One Who Knows
TTITLE8=Santorini
TTITLE9=Acroyali
TTITLE10=In The Mirror
TTITLE11=Someday
TTITLE12=Flight Of Fantasy
TTITLE13=The End Of August
TTITLE14=The Rain Must Fall
TTITLE15=Face In The Photograph
EXTD=YEAR: 2000
EXTT0=
EXTT1=
EXTT2=
EXTT3=
EXTT4=
EXTT5=
EXTT6=
EXTT7=
EXTT8=
EXTT9=
EXTT10=
EXTT11=
EXTT12=
EXTT13=
EXTT14=
EXTT15=
PLAYORDER=
